<svg width="152" height="148" xmlns="http://www.w3.org/2000/svg" xmlns:xlink="http://www.w3.org/1999/xlink" xml:space="preserve" overflow="hidden"><defs><clipPath id="clip0"><rect x="2100" y="963" width="152" height="148"/></clipPath></defs><g clip-path="url(#clip0)" transform="translate(-2100 -963)"><path d="M2142 1017.5C2142 987.4 2166.62 963 2197 963 2227.38 963 2252 987.4 2252 1017.5 2252 1047.6 2227.38 1072 2197 1072 2166.62 1072 2142 1047.6 2142 1017.5Z" fill="#F2F2F2" fill-rule="evenodd"/><g><g><g><path d="M104.5 104.5 19.25 104.5 19.25 112.75 112.75 112.75 112.75 19.25 104.5 19.25Z" fill="#0E2841" transform="matrix(-1 0 0 1 2232 979)"/><path d="M36.3 58.85 45.5125 56.5125 29.0125 46.75 19.25 63.25 28.325 60.9125C32.175 78.7875 38.3625 88 46.75 88 58.7125 88 66.4125 64.35 67.2375 61.6 71.5 47.85 77.55 39.1875 80.85 39.1875 83.05 39.1875 87.5875 45.1 90.6125 61.05L98.725 59.5375C96.25 46.475 91.3 30.9375 80.85 30.9375 69.1625 30.9375 61.875 50.7375 59.2625 59.125 56.1 69.7125 49.9125 79.75 46.75 79.75 43.725 79.75 39.325 73.2875 36.3 58.85Z" fill="#0E2841" transform="matrix(-1 0 0 1 2232 979)"/></g></g></g></g></svg>