<svg width="155" height="148" xmlns="http://www.w3.org/2000/svg" xmlns:xlink="http://www.w3.org/1999/xlink" xml:space="preserve" overflow="hidden"><defs><clipPath id="clip0"><rect x="2840" y="963" width="155" height="148"/></clipPath></defs><g clip-path="url(#clip0)" transform="translate(-2840 -963)"><path d="M2886 1017.5C2886 987.4 2910.4 963 2940.5 963 2970.6 963 2995 987.4 2995 1017.5 2995 1047.6 2970.6 1072 2940.5 1072 2910.4 1072 2886 1047.6 2886 1017.5Z" fill="#F2F2F2" fill-rule="evenodd"/><g><g><g><path d="M2965.52 1029.91C2965.44 1028.67 2964.54 1027.65 2963.33 1027.4L2948.79 1024.43C2947.88 1024.24 2946.95 1024.53 2946.3 1025.18L2943.36 1028.12 2923.83 1008.59C2923.6 1012.59 2921.44 1016.23 2918.04 1018.35L2935.58 1035.89 2932.74 1038.73C2932.1 1039.38 2931.82 1040.3 2931.99 1041.19L2934.8 1055.88C2935.03 1057.11 2936.07 1058.03 2937.32 1058.11L2951.9 1059.08C2951.96 1059.08 2952.02 1059.09 2952.09 1059.09 2953.6 1059.14 2954.88 1057.95 2954.93 1056.43 2954.98 1054.91 2953.78 1053.64 2952.27 1053.59L2939.8 1052.76 2937.66 1041.59 2949.14 1030.12 2960.18 1032.36 2961.01 1044.85C2961.11 1046.37 2962.42 1047.52 2963.94 1047.42 2965.45 1047.32 2966.6 1046.01 2966.5 1044.49Z" fill="#0E2841"/><path d="M2899.04 1049.04C2899.04 1044.62 2897.78 1040.3 2895.4 1036.57L2885.7 1048.16C2880.68 1054.18 2871.73 1054.99 2865.71 1049.97 2859.7 1044.95 2858.89 1036 2863.91 1029.98 2864.45 1029.33 2865.06 1028.72 2865.71 1028.18L2866.07 1027.88C2857.78 1031.66 2852.46 1039.93 2852.46 1049.04L2852.46 1075.25 2899.04 1075.25Z" fill="#0E2841"/><path d="M2899.12 1007.88C2899.12 1007.04 2899.21 1006.2 2899.38 1005.38L2868.36 1031.34C2864.1 1034.91 2863.54 1041.26 2867.11 1045.52 2870.68 1049.78 2877.02 1050.34 2881.28 1046.77 2881.74 1046.39 2882.16 1045.97 2882.54 1045.52L2905.16 1018.48C2901.42 1016.25 2899.13 1012.23 2899.12 1007.88ZM2878.39 1039.37C2877.32 1040.44 2875.58 1040.45 2874.51 1039.37 2873.43 1038.3 2873.43 1036.56 2874.5 1035.48 2875.58 1034.41 2877.32 1034.41 2878.39 1035.48 2878.39 1035.48 2878.39 1035.48 2878.39 1035.48 2879.47 1036.56 2879.47 1038.3 2878.39 1039.37Z" fill="#0E2841"/><path d="M2899.12 1080.75 2852.38 1080.75C2849.34 1080.75 2846.88 1083.21 2846.88 1086.25L2846.88 1091.75 2904.62 1091.75 2904.62 1086.25C2904.62 1083.21 2902.16 1080.75 2899.12 1080.75Z" fill="#0E2841"/><path d="M2911.5 999.625C2906.94 999.625 2903.25 1003.32 2903.25 1007.88 2903.25 1012.43 2906.94 1016.12 2911.5 1016.12 2916.06 1016.12 2919.75 1012.43 2919.75 1007.88 2919.75 1003.32 2916.06 999.625 2911.5 999.625ZM2911.5 1009.94C2910.36 1009.94 2909.44 1009.01 2909.44 1007.88 2909.44 1006.74 2910.36 1005.81 2911.5 1005.81 2912.64 1005.81 2913.56 1006.74 2913.56 1007.88 2913.56 1009.01 2912.64 1009.94 2911.5 1009.94Z" fill="#0E2841"/></g></g></g></g></svg>