<!--?xml version="1.0" standalone="no"?-->
              <svg id="sw-js-blob-svg" viewBox="0 0 100 100" xmlns="http://www.w3.org/2000/svg" version="1.1">
                    <defs> 
                        <linearGradient id="sw-gradient" x1="0" x2="1" y1="1" y2="0">
                            <stop id="stop1" stop-color="rgba(249, 191, 41, 1)" offset="0%"></stop>
                            <stop id="stop2" stop-color="rgba(223.623, 139.256, 0, 1)" offset="100%"></stop>
                        </linearGradient>
                    </defs>
                <path fill="url(#sw-gradient)" d="M21.8,-25.3C29.6,-19.4,38.3,-13.9,40.6,-6.4C42.8,1.1,38.6,10.5,32.4,16.4C26.3,22.4,18.1,24.9,10,28.2C1.9,31.5,-6.3,35.6,-14.9,35C-23.5,34.4,-32.5,29.2,-35,21.8C-37.4,14.3,-33.2,4.6,-30.1,-3.9C-26.9,-12.3,-24.7,-19.6,-19.8,-26C-15,-32.4,-7.5,-38.1,-0.3,-37.8C7,-37.5,14,-31.2,21.8,-25.3Z" width="100%" height="100%" transform="translate(50 50)" stroke-width="0" style="transition: 0.3s;"></path>
              </svg>