<svg width="176" height="164" xmlns="http://www.w3.org/2000/svg" xmlns:xlink="http://www.w3.org/1999/xlink" xml:space="preserve" overflow="hidden"><g transform="translate(-1088 -976)"><path d="M1090.27 1078.13 1118.03 1124.45" stroke="#0E2841" stroke-width="3.4375" stroke-miterlimit="8" fill="none" fill-rule="evenodd"/><path d="M1091.79 1062.52 1132.52 1130.46" stroke="#0E2841" stroke-width="3.4375" stroke-miterlimit="8" fill="none" fill-rule="evenodd"/><path d="M1094.25 1048.46 1146.08 1134.92" stroke="#0E2841" stroke-width="3.4375" stroke-miterlimit="8" fill="none" fill-rule="evenodd"/><path d="M1103.09 1026.89 1169.26 1137.29" stroke="#0E2841" stroke-width="3.4375" stroke-miterlimit="8" fill="none" fill-rule="evenodd"/><path d="M1108.09 1017.07 1180.28 1137.51" stroke="#0E2841" stroke-width="3.4375" stroke-miterlimit="8" fill="none" fill-rule="evenodd"/><path d="M1114.24 1009.18 1190.14 1135.8" stroke="#0E2841" stroke-width="3.4375" stroke-miterlimit="8" fill="none" fill-rule="evenodd"/><path d="M1120.86 1002.07 1199.53 1133.31" stroke="#0E2841" stroke-width="3.4375" stroke-miterlimit="8" fill="none" fill-rule="evenodd"/><path d="M1126.84 993.888 1209.57 1131.9" stroke="#0E2841" stroke-width="3.4375" stroke-miterlimit="8" fill="none" fill-rule="evenodd"/><path d="M1134.56 988.61 1217.86 1127.57" stroke="#0E2841" stroke-width="3.4375" stroke-miterlimit="8" fill="none" fill-rule="evenodd"/><path d="M1098.09 1036.71 1158.25 1137.07" stroke="#0E2841" stroke-width="3.4375" stroke-miterlimit="8" fill="none" fill-rule="evenodd"/><path d="M1262.16 1038.06 1234.39 991.736" stroke="#0E2841" stroke-width="3.4375" stroke-miterlimit="8" fill="none" fill-rule="evenodd"/><path d="M1260.63 1053.67 1219.9 985.728" stroke="#0E2841" stroke-width="3.4375" stroke-miterlimit="8" fill="none" fill-rule="evenodd"/><path d="M1258.17 1067.73 1206.34 981.263" stroke="#0E2841" stroke-width="3.4375" stroke-miterlimit="8" fill="none" fill-rule="evenodd"/><path d="M1249.33 1089.29 1183.16 978.896" stroke="#0E2841" stroke-width="3.4375" stroke-miterlimit="8" fill="none" fill-rule="evenodd"/><path d="M1244.33 1099.11 1172.14 978.677" stroke="#0E2841" stroke-width="3.4375" stroke-miterlimit="8" fill="none" fill-rule="evenodd"/><path d="M1238.18 1107 1162.28 980.388" stroke="#0E2841" stroke-width="3.4375" stroke-miterlimit="8" fill="none" fill-rule="evenodd"/><path d="M1231.56 1114.12 1152.89 982.872" stroke="#0E2841" stroke-width="3.4375" stroke-miterlimit="8" fill="none" fill-rule="evenodd"/><path d="M1225.58 1122.3 1142.85 984.289" stroke="#0E2841" stroke-width="3.4375" stroke-miterlimit="8" fill="none" fill-rule="evenodd"/><path d="M1254.33 1079.48 1194.17 979.114" stroke="#0E2841" stroke-width="3.4375" stroke-miterlimit="8" fill="none" fill-rule="evenodd"/></g></svg>