<svg width="152" height="148" xmlns="http://www.w3.org/2000/svg" xmlns:xlink="http://www.w3.org/1999/xlink" xml:space="preserve" overflow="hidden"><defs><clipPath id="clip0"><rect x="2347" y="963" width="152" height="148"/></clipPath></defs><g clip-path="url(#clip0)" transform="translate(-2347 -963)"><path d="M2390 1017.5C2390 987.4 2414.4 963 2444.5 963 2474.6 963 2499 987.4 2499 1017.5 2499 1047.6 2474.6 1072 2444.5 1072 2414.4 1072 2390 1047.6 2390 1017.5Z" fill="#F2F2F2" fill-rule="evenodd"/><g><g><g><path d="M2385.16 1032.06C2394.52 1028.99 2404.78 1030.36 2413 1035.8 2421.22 1030.36 2431.48 1028.99 2440.84 1032.06 2441.06 1030.7 2441.18 1029.32 2441.19 1027.94 2441.19 1012.37 2428.57 999.749 2413 999.749 2397.43 999.749 2384.81 1012.37 2384.81 1027.94 2384.82 1029.32 2384.94 1030.7 2385.16 1032.06Z" fill="#0E2841"/><path d="M2443.77 1037.77C2441.05 1046.2 2434.99 1053.16 2427.01 1057.02 2427.35 1058.91 2427.52 1060.82 2427.52 1062.74 2427.52 1072.03 2423.51 1080.87 2416.52 1086.99 2420.84 1089.57 2425.77 1090.93 2430.79 1090.93 2446.35 1090.93 2458.97 1078.32 2458.98 1062.76 2458.98 1052.24 2453.12 1042.59 2443.77 1037.74Z" fill="#0E2841"/><path d="M2422.17 1054.62C2420.55 1049.23 2417.35 1044.45 2413 1040.88 2408.65 1044.45 2405.45 1049.23 2403.83 1054.62 2409.77 1056.7 2416.23 1056.7 2422.17 1054.62Z" fill="#0E2841"/><path d="M2395.21 1090.95C2400.23 1090.95 2405.16 1089.59 2409.48 1087.02 2402.49 1080.9 2398.48 1072.06 2398.48 1062.77 2398.48 1060.85 2398.65 1058.93 2398.99 1057.05 2391.01 1053.19 2384.95 1046.23 2382.23 1037.8 2368.41 1044.96 2363.02 1061.96 2370.19 1075.78 2375.03 1085.12 2384.68 1090.98 2395.21 1090.98Z" fill="#0E2841"/><path d="M2413 1084.6C2419.58 1079.26 2423.4 1071.24 2423.4 1062.77 2423.38 1061.38 2423.27 1060.01 2423.07 1058.64 2416.53 1060.79 2409.47 1060.79 2402.94 1058.64 2402.73 1060.01 2402.62 1061.38 2402.61 1062.77 2402.6 1071.24 2406.42 1079.26 2413 1084.6Z" fill="#0E2841"/><path d="M2439.96 1036.13C2432.2 1033.44 2423.65 1034.31 2416.59 1038.5 2420.99 1042.36 2424.26 1047.34 2426.05 1052.92 2432.74 1049.41 2437.75 1043.36 2439.96 1036.13Z" fill="#0E2841"/><path d="M2395.21 1034.58C2392.09 1034.58 2388.99 1035.11 2386.04 1036.13 2388.26 1043.37 2393.3 1049.42 2400.02 1052.92 2401.81 1047.34 2405.08 1042.36 2409.48 1038.5 2405.16 1035.93 2400.23 1034.58 2395.21 1034.58Z" fill="#0E2841"/></g></g></g></g></svg>