<svg width="96" height="96" xmlns="http://www.w3.org/2000/svg" xmlns:xlink="http://www.w3.org/1999/xlink" xml:space="preserve" overflow="hidden"><g transform="translate(-592 -312)"><path d="M638.4 401.042C641.494 401.042 643.1 399.279 644.54 397.267 645.657 395.706 646.378 394.814 648.186 394.648 650.413 394.448 652.522 395.659 654.964 397.064 659.012 399.4 664.054 402.3 671.254 398.9 672.246 398.414 672.656 397.216 672.17 396.224 671.694 395.253 670.532 394.836 669.547 395.283 664.237 397.789 660.863 395.846 656.957 393.598 654.179 391.998 651.31 390.344 647.817 390.665 644.099 391.006 642.473 393.279 641.284 394.939 639.868 396.917 639.157 397.91 634.743 396.139 633.717 395.729 632.553 396.227 632.143 397.253 631.733 398.279 632.231 399.443 633.257 399.853 634.881 400.57 636.626 400.974 638.4 401.042Z" fill="#FFFFFF"/><path d="M662.1 375.96C664.347 379.596 669.142 387.845 671.13 395.019 671.139 395.055 671.117 395.091 671.081 395.1 671.055 395.107 671.027 395.097 671.011 395.075 669.238 392.948 667.206 391.052 664.963 389.428L664.963 389.428C664.934 389.345 663.222 384.467 658.15 376.755 658.14 376.74 658.123 376.732 658.105 376.735 656.285 376.895 654.451 376.663 652.729 376.053 645.712 374.105 640.629 367.436 640.129 366.753 640.109 366.726 640.129 366.696 640.165 366.696 642.875 366.665 645.544 366.033 647.979 364.844 648.081 364.802 648.13 364.685 648.087 364.583 648.05 364.493 647.954 364.443 647.859 364.464L647.853 364.464C642.5 365.312 637.094 363.288 633.614 359.132 631.453 356.534 629.078 354.121 626.514 351.919 623.297 349.156 619.226 346.413 615.464 343.577 615.268 343.421 615.236 343.136 615.391 342.94 615.46 342.855 615.556 342.797 615.664 342.777 618.139 342.315 620.492 341.345 622.574 339.93 622.623 339.897 622.655 339.845 622.661 339.786 622.674 339.676 622.596 339.577 622.487 339.563 622.458 339.56 622.429 339.562 622.402 339.571 619.261 340.531 615.919 340.629 612.727 339.855 610.848 339.391 609.162 338.347 607.91 336.871 604.579 332.98 603.21 328.797 606.249 324.085 608.32 320.872 612.94 319.485 618.927 320.176 622.431 320.548 625.43 322.854 626.689 326.145 627.119 327.298 627.431 328.492 627.62 329.709 627.62 329.819 627.709 329.909 627.82 329.909 627.93 329.909 628.02 329.819 628.02 329.709 628.05 329.509 628.075 329.309 628.098 329.109 628.32 327.122 628.215 325.111 627.785 323.158 627.726 322.921 627.871 322.68 628.108 322.621 628.195 322.6 628.286 322.605 628.369 322.636 633.06 324.517 637.495 326.982 641.569 329.974 646.287 333.369 650.613 337.278 654.469 341.627 656.944 344.407 658.267 348.026 658.169 351.747 658.107 353.308 657.844 354.854 657.385 356.347 657.347 356.451 657.401 356.566 657.505 356.603 657.594 356.636 657.695 356.601 657.744 356.519 659.023 354.635 659.939 352.528 660.444 350.307L660.526 350.294C662.912 354.872 665.497 362.042 665.903 366.794 666.16 369.806 665.315 372.508 663.765 373.98 663.748 373.997 663.72 373.998 663.703 373.981 663.7 373.978 663.697 373.975 663.695 373.971 659.952 367.356 652.367 356.1 646.966 350.686 642.849 346.461 638.254 342.729 633.274 339.567 632.573 339.125 631.81 338.788 631.011 338.567 630.907 338.531 630.793 338.587 630.757 338.691 630.726 338.78 630.762 338.878 630.842 338.927 634.938 341.776 638.773 344.984 642.3 348.513 648.532 354.753 657.232 366.768 661.422 374.746 661.636 375.162 661.858 375.561 662.1 375.96Z" fill="#FFFFFF"/></g></svg>