<svg width="153" height="148" xmlns="http://www.w3.org/2000/svg" xmlns:xlink="http://www.w3.org/1999/xlink" xml:space="preserve" overflow="hidden"><defs><clipPath id="clip0"><rect x="2594" y="963" width="153" height="148"/></clipPath></defs><g clip-path="url(#clip0)" transform="translate(-2594 -963)"><path d="M2638 1017.5C2638 987.4 2662.4 963 2692.5 963 2722.6 963 2747 987.4 2747 1017.5 2747 1047.6 2722.6 1072 2692.5 1072 2662.4 1072 2638 1047.6 2638 1017.5Z" fill="#F2F2F2" fill-rule="evenodd"/><g><g><g><path d="M2698.5 1061.5 2621.5 1061.5 2621.5 1014.75 2698.5 1014.75ZM2706.75 1012C2706.75 1008.96 2704.29 1006.5 2701.25 1006.5L2618.75 1006.5C2615.71 1006.5 2613.25 1008.96 2613.25 1012L2613.25 1069.75 2706.75 1069.75Z" fill="#0E2841"/><path d="M2668.25 1075.25 2668.25 1076.62C2668.3 1077.34 2667.76 1077.95 2667.05 1078 2666.99 1078 2666.93 1078 2666.88 1078L2653.12 1078C2652.41 1078.05 2651.8 1077.51 2651.75 1076.8 2651.75 1076.74 2651.75 1076.68 2651.75 1076.62L2651.75 1075.25 2596.75 1075.25 2596.75 1078C2596.75 1081.04 2599.21 1083.5 2602.25 1083.5L2717.75 1083.5C2720.79 1083.5 2723.25 1081.04 2723.25 1078L2723.25 1075.25Z" fill="#0E2841"/><path d="M2660 1018.88C2649.37 1018.88 2640.75 1027.49 2640.75 1038.12 2640.75 1048.76 2649.37 1057.38 2660 1057.38 2670.63 1057.38 2679.25 1048.76 2679.25 1038.12 2679.25 1027.49 2670.63 1018.88 2660 1018.88ZM2661.38 1039.5 2667.69 1039.5C2666.97 1044.24 2664.76 1048.63 2661.38 1052.03ZM2661.38 1036.75 2661.38 1024.21C2664.76 1027.61 2666.97 1032 2667.69 1036.75ZM2658.62 1036.75 2652.52 1036.75C2653.2 1032.09 2655.34 1027.76 2658.62 1024.38ZM2658.62 1039.5 2658.62 1051.88C2655.35 1048.49 2653.21 1044.16 2652.52 1039.5ZM2649.76 1036.75 2643.87 1036.75C2644.48 1029.55 2649.8 1023.63 2656.89 1022.24 2652.97 1026.16 2650.46 1031.26 2649.76 1036.75ZM2649.76 1039.5C2650.46 1045 2652.98 1050.11 2656.92 1054.02 2649.81 1052.64 2644.49 1046.71 2643.87 1039.5ZM2670.45 1039.5 2676.13 1039.5C2675.53 1046.62 2670.32 1052.5 2663.33 1053.96 2667.25 1050.07 2669.75 1044.98 2670.45 1039.5ZM2670.45 1036.75C2669.75 1031.28 2667.26 1026.2 2663.37 1022.3 2670.34 1023.78 2675.53 1029.65 2676.13 1036.75Z" fill="#0E2841"/></g></g></g></g></svg>