<svg width="188" height="188" xmlns="http://www.w3.org/2000/svg" xmlns:xlink="http://www.w3.org/1999/xlink" xml:space="preserve" overflow="hidden"><defs><clipPath id="clip0"><rect x="1344" y="878" width="188" height="188"/></clipPath></defs><g clip-path="url(#clip0)" transform="translate(-1344 -878)"><path d="M1344 972C1344 920.085 1386.09 878 1438 878 1489.91 878 1532 920.085 1532 972 1532 1023.91 1489.91 1066 1438 1066 1386.09 1066 1344 1023.91 1344 972ZM1370.11 972C1370.11 1009.5 1400.5 1039.89 1438 1039.89 1475.5 1039.89 1505.89 1009.5 1505.89 972 1505.89 934.504 1475.5 904.108 1438 904.108 1400.5 904.108 1370.11 934.504 1370.11 972Z" fill="#FFC000" fill-rule="evenodd"/></g></svg>